# xmcd
#
# Track frame offsets:
#  150
#  17087
#  37730
#  65042
#  86423
#  109283
#  131844
#  154211
#  173645
#  192200
#
# Disc length: 2862 seconds
#
# Revision: 0
# Processed by: cddbd v1.5PL3 Copyright (c) Steve Scherf et al.
# Submitted via: AltoMP3_Maker 3.0
#
DISCID=7f0b2c0a
DTITLE=various artist - Urban Bhangra
DYEAR=1900
DGENRE=
TTITLE0=Punjabi
TTITLE1=Mera Yaar Tu Pyara
TTITLE2=Telephone
TTITLE3=Nakhra Janab Da
TTITLE4=Makhna
TTITLE5=Dil Tere Te Aaya
TTITLE6=Haan Da Munda
TTITLE7=Mitran Tu
TTITLE8=Tu Sohni Kuri
TTITLE9=Ash Karo
EXTD=
EXTT0=
EXTT1=
EXTT2=
EXTT3=
EXTT4=
EXTT5=
EXTT6=
EXTT7=
EXTT8=
EXTT9=
PLAYORDER=
